<?xml version="1.0" encoding="utf-8"?>
<!-- Generator: Adobe Illustrator 27.5.0, SVG Export Plug-In . SVG Version: 6.00 Build 0)  -->
<svg version="1.1" xmlns="http://www.w3.org/2000/svg" xmlns:xlink="http://www.w3.org/1999/xlink" x="0px" y="0px"
	 viewBox="0 0 750 500" style="enable-background:new 0 0 750 500;" xml:space="preserve">
<g id="Background_complete">
	<g>
		<g>
			<g>
				<g>
					<g>
						<path style="fill:#E0E0E0;" d="M673.734,360.135H492.988c-3.232,0-5.862-2.63-5.862-5.862V90.999
							c0-3.232,2.63-5.862,5.862-5.862h180.746c3.232,0,5.862,2.629,5.862,5.862v263.273
							C679.596,357.505,676.966,360.135,673.734,360.135z M492.988,85.387c-3.095,0-5.612,2.518-5.612,5.612v263.273
							c0,3.095,2.518,5.612,5.612,5.612h180.746c3.095,0,5.612-2.517,5.612-5.612V90.999c0-3.094-2.518-5.612-5.612-5.612H492.988z"
							/>
					</g>
				</g>
				<g>
					<g>
						<path style="fill:#E0E0E0;" d="M465.306,360.135H284.56c-3.232,0-5.862-2.63-5.862-5.862V90.999
							c0-3.232,2.629-5.862,5.862-5.862h180.747c3.232,0,5.862,2.629,5.862,5.862v263.273
							C471.168,357.505,468.538,360.135,465.306,360.135z M284.56,85.387c-3.094,0-5.612,2.518-5.612,5.612v263.273
							c0,3.095,2.518,5.612,5.612,5.612h180.747c3.095,0,5.612-2.517,5.612-5.612V90.999c0-3.094-2.518-5.612-5.612-5.612H284.56z"
							/>
					</g>
				</g>
			</g>
			<g>
				<g>
					<g>
						<path style="fill:#E0E0E0;" d="M257.012,360.135H76.266c-3.232,0-5.862-2.63-5.862-5.862V90.999
							c0-3.232,2.629-5.862,5.862-5.862h180.746c3.232,0,5.862,2.629,5.862,5.862v263.273
							C262.875,357.505,260.245,360.135,257.012,360.135z M76.266,85.387c-3.094,0-5.612,2.518-5.612,5.612v263.273
							c0,3.095,2.518,5.612,5.612,5.612h180.746c3.095,0,5.612-2.517,5.612-5.612V90.999c0-3.094-2.518-5.612-5.612-5.612H76.266z"
							/>
					</g>
				</g>
			</g>
			<g>
				<g>
					<rect y="391.449" style="fill:#E0E0E0;" width="750" height="0.12"/>
				</g>
			</g>
		</g>
		<g>
			<rect x="651.428" y="409.876" style="fill:#E0E0E0;" width="55.729" height="0.421"/>
			<rect x="492.845" y="414.442" style="fill:#E0E0E0;" width="14.627" height="0.421"/>
			<rect x="38.446" y="397.079" style="fill:#E0E0E0;" width="72.674" height="0.421"/>
			<rect x="126.101" y="397.079" style="fill:#E0E0E0;" width="10.655" height="0.421"/>
			<rect x="171.387" y="404.183" style="fill:#E0E0E0;" width="157.613" height="0.421"/>
		</g>
	</g>
	<g id="freepik--background-complete--inject-481_00000119839895603333606450000013569256019835408830_">
		<g>
			<polygon style="fill:#F0F0F0;" points="700.615,257.806 700.615,211.218 671.769,211.218 671.769,221.842 652.542,221.842 
				652.542,105.466 615.574,105.466 615.574,151.271 604.482,151.271 604.482,128.398 575.636,128.398 575.636,239.947 
				534.962,239.947 534.962,200.535 509.46,200.535 509.46,115.086 477.984,115.086 477.984,172.052 448.402,172.052 
				448.402,294.775 425.482,294.775 425.482,235.014 401.814,235.014 401.814,196.561 376.674,196.561 376.674,167.038 
				348.623,181.835 348.623,260.821 319.041,260.821 319.041,244.528 279.524,244.528 279.524,391.227 739.488,391.449 
				739.488,257.806 			"/>
			<rect x="485.184" y="125.172" style="fill:#FAFAFA;" width="9.21" height="10.554"/>
			<rect x="485.184" y="142.867" style="fill:#FAFAFA;" width="9.21" height="10.554"/>
			<rect x="485.184" y="160.575" style="fill:#FAFAFA;" width="9.21" height="10.554"/>
			<rect x="485.184" y="178.27" style="fill:#FAFAFA;" width="9.21" height="10.554"/>
			<rect x="485.184" y="195.965" style="fill:#FAFAFA;" width="9.21" height="10.554"/>
			<rect x="485.184" y="213.673" style="fill:#FAFAFA;" width="9.21" height="10.554"/>
			<rect x="485.184" y="231.368" style="fill:#FAFAFA;" width="9.21" height="10.554"/>
			<rect x="485.184" y="249.075" style="fill:#FAFAFA;" width="9.21" height="10.554"/>
			<rect x="623.533" y="111.041" style="fill:#FAFAFA;" width="9.21" height="10.554"/>
			<rect x="623.533" y="128.737" style="fill:#FAFAFA;" width="9.21" height="10.554"/>
			<rect x="623.533" y="146.444" style="fill:#FAFAFA;" width="9.21" height="10.554"/>
			<rect x="623.533" y="164.139" style="fill:#FAFAFA;" width="9.21" height="10.554"/>
			<rect x="623.533" y="181.846" style="fill:#FAFAFA;" width="9.21" height="10.554"/>
			<rect x="623.533" y="199.542" style="fill:#FAFAFA;" width="9.21" height="10.554"/>
			<rect x="623.533" y="217.249" style="fill:#FAFAFA;" width="9.21" height="10.554"/>
			<rect x="623.533" y="234.945" style="fill:#FAFAFA;" width="9.21" height="10.554"/>
		</g>
		<g>
			<path style="fill:#E0E0E0;" d="M453.708,391.311V221.574h-36.641v169.72L453.708,391.311z"/>
			<rect x="419.849" y="226.962" style="fill:#FAFAFA;" width="4.441" height="9.163"/>
			<rect x="428.732" y="226.962" style="fill:#FAFAFA;" width="4.441" height="9.163"/>
			<rect x="437.614" y="226.962" style="fill:#FAFAFA;" width="4.441" height="9.163"/>
			<rect x="446.497" y="226.962" style="fill:#FAFAFA;" width="4.441" height="9.163"/>
			<rect x="419.849" y="242.331" style="fill:#FAFAFA;" width="4.441" height="9.163"/>
			<rect x="428.732" y="242.331" style="fill:#FAFAFA;" width="4.441" height="9.163"/>
			<rect x="437.614" y="242.331" style="fill:#FAFAFA;" width="4.441" height="9.163"/>
			<rect x="446.497" y="242.331" style="fill:#FAFAFA;" width="4.441" height="9.163"/>
			<rect x="419.849" y="257.689" style="fill:#FAFAFA;" width="4.441" height="9.163"/>
			<rect x="428.732" y="257.689" style="fill:#FAFAFA;" width="4.441" height="9.163"/>
			<rect x="437.614" y="257.689" style="fill:#FAFAFA;" width="4.441" height="9.163"/>
			<rect x="446.497" y="257.689" style="fill:#FAFAFA;" width="4.441" height="9.163"/>
			<rect x="419.849" y="273.047" style="fill:#FAFAFA;" width="4.441" height="9.163"/>
			<rect x="428.732" y="273.047" style="fill:#FAFAFA;" width="4.441" height="9.163"/>
			<rect x="437.614" y="273.047" style="fill:#FAFAFA;" width="4.441" height="9.163"/>
			<rect x="446.497" y="273.047" style="fill:#FAFAFA;" width="4.441" height="9.163"/>
			<rect x="419.849" y="288.405" style="fill:#FAFAFA;" width="4.441" height="9.163"/>
			<rect x="428.732" y="288.405" style="fill:#FAFAFA;" width="4.441" height="9.163"/>
			<rect x="437.614" y="288.405" style="fill:#FAFAFA;" width="4.441" height="9.163"/>
			<rect x="446.497" y="288.405" style="fill:#FAFAFA;" width="4.441" height="9.163"/>
			<rect x="419.849" y="303.763" style="fill:#FAFAFA;" width="4.441" height="9.163"/>
			<rect x="428.732" y="303.763" style="fill:#FAFAFA;" width="4.441" height="9.163"/>
			<rect x="437.614" y="303.763" style="fill:#FAFAFA;" width="4.441" height="9.163"/>
			<rect x="446.497" y="303.763" style="fill:#FAFAFA;" width="4.441" height="9.163"/>
			<rect x="419.849" y="319.12" style="fill:#FAFAFA;" width="4.441" height="9.163"/>
			<rect x="428.732" y="319.12" style="fill:#FAFAFA;" width="4.441" height="9.163"/>
			<rect x="437.614" y="319.12" style="fill:#FAFAFA;" width="4.441" height="9.163"/>
			<rect x="446.497" y="319.12" style="fill:#FAFAFA;" width="4.441" height="9.163"/>
			<rect x="419.849" y="334.49" style="fill:#FAFAFA;" width="4.441" height="9.163"/>
			<rect x="428.732" y="334.49" style="fill:#FAFAFA;" width="4.441" height="9.163"/>
			<rect x="437.614" y="334.49" style="fill:#FAFAFA;" width="4.441" height="9.163"/>
			<rect x="446.497" y="334.49" style="fill:#FAFAFA;" width="4.441" height="9.163"/>
		</g>
		<g>
			<path style="fill:#E6E6E6;" d="M581.036,391.373V201.985h-75.971v189.441C505.065,391.426,580.454,391.449,581.036,391.373z"/>
			<rect x="510.769" y="208.249" style="fill:#E0E0E0;" width="9.21" height="10.554"/>
			<rect x="529.2" y="208.249" style="fill:#E0E0E0;" width="9.21" height="10.554"/>
			<rect x="547.62" y="208.249" style="fill:#E0E0E0;" width="9.21" height="10.554"/>
			<rect x="566.052" y="208.249" style="fill:#E0E0E0;" width="9.21" height="10.554"/>
			<rect x="510.769" y="225.956" style="fill:#E0E0E0;" width="9.21" height="10.554"/>
			<rect x="529.2" y="225.956" style="fill:#E0E0E0;" width="9.21" height="10.554"/>
			<rect x="547.62" y="225.956" style="fill:#E0E0E0;" width="9.21" height="10.554"/>
			<rect x="566.052" y="225.956" style="fill:#E0E0E0;" width="9.21" height="10.554"/>
			<rect x="510.769" y="243.652" style="fill:#E0E0E0;" width="9.21" height="10.554"/>
			<rect x="529.2" y="243.652" style="fill:#E0E0E0;" width="9.21" height="10.554"/>
			<rect x="547.62" y="243.652" style="fill:#E0E0E0;" width="9.21" height="10.554"/>
			<rect x="566.052" y="243.652" style="fill:#E0E0E0;" width="9.21" height="10.554"/>
			<rect x="510.769" y="261.347" style="fill:#E0E0E0;" width="9.21" height="10.554"/>
			<rect x="529.2" y="261.347" style="fill:#E0E0E0;" width="9.21" height="10.554"/>
			<rect x="547.62" y="261.347" style="fill:#E0E0E0;" width="9.21" height="10.554"/>
			<rect x="566.052" y="261.347" style="fill:#E0E0E0;" width="9.21" height="10.554"/>
			<rect x="510.769" y="279.054" style="fill:#E0E0E0;" width="9.21" height="10.554"/>
			<rect x="529.2" y="279.054" style="fill:#E0E0E0;" width="9.21" height="10.554"/>
			<rect x="547.62" y="279.054" style="fill:#E0E0E0;" width="9.21" height="10.554"/>
			<rect x="566.052" y="279.054" style="fill:#E0E0E0;" width="9.21" height="10.554"/>
			<rect x="510.769" y="296.75" style="fill:#E0E0E0;" width="9.21" height="10.554"/>
			<rect x="529.2" y="296.75" style="fill:#E0E0E0;" width="9.21" height="10.554"/>
			<rect x="547.62" y="296.75" style="fill:#E0E0E0;" width="9.21" height="10.554"/>
			<rect x="566.052" y="296.75" style="fill:#E0E0E0;" width="9.21" height="10.554"/>
			<rect x="510.769" y="314.457" style="fill:#E0E0E0;" width="9.21" height="10.554"/>
			<rect x="529.2" y="314.457" style="fill:#E0E0E0;" width="9.21" height="10.554"/>
			<rect x="547.62" y="314.457" style="fill:#E0E0E0;" width="9.21" height="10.554"/>
			<rect x="566.052" y="314.457" style="fill:#E0E0E0;" width="9.21" height="10.554"/>
			<rect x="510.769" y="332.152" style="fill:#E0E0E0;" width="9.21" height="10.554"/>
			<rect x="529.2" y="332.152" style="fill:#E0E0E0;" width="9.21" height="10.554"/>
			<rect x="547.62" y="332.152" style="fill:#E0E0E0;" width="9.21" height="10.554"/>
			<rect x="566.052" y="332.152" style="fill:#E0E0E0;" width="9.21" height="10.554"/>
		</g>
		<g>
			<path style="fill:#E6E6E6;" d="M403.743,391.288V188.742h-31.429v202.707C382.261,391.204,403.743,391.288,403.743,391.288z"/>
			<rect x="376.966" y="192.494" style="fill:#FAFAFA;" width="9.21" height="10.554"/>
			<rect x="376.966" y="210.19" style="fill:#FAFAFA;" width="9.21" height="10.554"/>
			<rect x="376.966" y="227.897" style="fill:#FAFAFA;" width="9.21" height="10.554"/>
			<rect x="376.966" y="245.592" style="fill:#FAFAFA;" width="9.21" height="10.554"/>
			<rect x="376.966" y="263.288" style="fill:#FAFAFA;" width="9.21" height="10.554"/>
			<rect x="376.966" y="280.995" style="fill:#FAFAFA;" width="9.21" height="10.554"/>
			<rect x="376.966" y="298.69" style="fill:#FAFAFA;" width="9.21" height="10.554"/>
			<rect x="376.966" y="316.397" style="fill:#FAFAFA;" width="9.21" height="10.554"/>
			<rect x="389.285" y="192.494" style="fill:#FAFAFA;" width="9.21" height="10.554"/>
			<rect x="389.285" y="210.19" style="fill:#FAFAFA;" width="9.21" height="10.554"/>
			<rect x="389.285" y="227.897" style="fill:#FAFAFA;" width="9.21" height="10.554"/>
			<rect x="389.285" y="245.592" style="fill:#FAFAFA;" width="9.21" height="10.554"/>
			<rect x="389.285" y="263.288" style="fill:#FAFAFA;" width="9.21" height="10.554"/>
			<rect x="389.285" y="280.995" style="fill:#FAFAFA;" width="9.21" height="10.554"/>
			<rect x="389.285" y="298.69" style="fill:#FAFAFA;" width="9.21" height="10.554"/>
			<rect x="389.285" y="316.397" style="fill:#FAFAFA;" width="9.21" height="10.554"/>
		</g>
		<g>
			<rect x="649.303" y="192.354" style="fill:#E6E6E6;" width="55.471" height="199.095"/>
			<rect x="657.508" y="200.582" style="fill:#FAFAFA;" width="16.258" height="10.554"/>
			<rect x="657.508" y="218.289" style="fill:#FAFAFA;" width="16.258" height="10.554"/>
			<rect x="657.508" y="235.985" style="fill:#FAFAFA;" width="16.258" height="10.554"/>
			<rect x="657.508" y="253.692" style="fill:#FAFAFA;" width="16.258" height="10.554"/>
			<rect x="657.508" y="271.387" style="fill:#FAFAFA;" width="16.258" height="10.554"/>
			<rect x="657.508" y="289.083" style="fill:#FAFAFA;" width="16.258" height="10.554"/>
			<rect x="657.508" y="306.79" style="fill:#FAFAFA;" width="16.258" height="10.554"/>
			<rect x="657.508" y="324.485" style="fill:#FAFAFA;" width="16.258" height="10.554"/>
			<rect x="679.259" y="200.582" style="fill:#FAFAFA;" width="16.258" height="10.554"/>
			<rect x="679.259" y="218.289" style="fill:#FAFAFA;" width="16.258" height="10.554"/>
			<rect x="679.259" y="235.985" style="fill:#FAFAFA;" width="16.258" height="10.554"/>
			<rect x="679.259" y="253.692" style="fill:#FAFAFA;" width="16.258" height="10.554"/>
			<rect x="679.259" y="271.387" style="fill:#FAFAFA;" width="16.258" height="10.554"/>
			<rect x="679.259" y="289.083" style="fill:#FAFAFA;" width="16.258" height="10.554"/>
			<rect x="679.259" y="306.79" style="fill:#FAFAFA;" width="16.258" height="10.554"/>
			<rect x="679.259" y="324.485" style="fill:#FAFAFA;" width="16.258" height="10.554"/>
		</g>
		<g>
			<path style="fill:#E0E0E0;" d="M613.014,391.388V243.652H588.82v147.725L613.014,391.388z"/>
			<rect x="590.655" y="248.327" style="fill:#FAFAFA;" width="2.934" height="7.866"/>
			<rect x="596.522" y="248.327" style="fill:#FAFAFA;" width="2.934" height="7.866"/>
			<rect x="602.378" y="248.327" style="fill:#FAFAFA;" width="2.934" height="7.866"/>
			<rect x="608.245" y="248.327" style="fill:#FAFAFA;" width="2.934" height="7.866"/>
			<rect x="590.655" y="261.523" style="fill:#FAFAFA;" width="2.934" height="7.866"/>
			<rect x="596.522" y="261.523" style="fill:#FAFAFA;" width="2.934" height="7.866"/>
			<rect x="602.378" y="261.523" style="fill:#FAFAFA;" width="2.934" height="7.866"/>
			<rect x="608.245" y="261.523" style="fill:#FAFAFA;" width="2.934" height="7.866"/>
			<rect x="590.655" y="274.718" style="fill:#FAFAFA;" width="2.934" height="7.866"/>
			<rect x="596.522" y="274.718" style="fill:#FAFAFA;" width="2.934" height="7.866"/>
			<rect x="602.378" y="274.718" style="fill:#FAFAFA;" width="2.934" height="7.866"/>
			<rect x="608.245" y="274.718" style="fill:#FAFAFA;" width="2.934" height="7.866"/>
			<rect x="590.655" y="287.914" style="fill:#FAFAFA;" width="2.934" height="7.866"/>
			<rect x="596.522" y="287.914" style="fill:#FAFAFA;" width="2.934" height="7.866"/>
			<rect x="602.378" y="287.914" style="fill:#FAFAFA;" width="2.934" height="7.866"/>
			<rect x="608.245" y="287.914" style="fill:#FAFAFA;" width="2.934" height="7.866"/>
			<rect x="590.655" y="301.121" style="fill:#FAFAFA;" width="2.934" height="7.866"/>
			<rect x="596.522" y="301.121" style="fill:#FAFAFA;" width="2.934" height="7.866"/>
			<rect x="602.378" y="301.121" style="fill:#FAFAFA;" width="2.934" height="7.866"/>
			<rect x="608.245" y="301.121" style="fill:#FAFAFA;" width="2.934" height="7.866"/>
			<rect x="590.655" y="314.317" style="fill:#FAFAFA;" width="2.934" height="7.866"/>
			<rect x="596.522" y="314.317" style="fill:#FAFAFA;" width="2.934" height="7.866"/>
			<rect x="602.378" y="314.317" style="fill:#FAFAFA;" width="2.934" height="7.866"/>
			<rect x="608.245" y="314.317" style="fill:#FAFAFA;" width="2.934" height="7.866"/>
			<rect x="590.655" y="327.512" style="fill:#FAFAFA;" width="2.934" height="7.866"/>
			<rect x="596.522" y="327.512" style="fill:#FAFAFA;" width="2.934" height="7.866"/>
			<rect x="602.378" y="327.512" style="fill:#FAFAFA;" width="2.934" height="7.866"/>
			<rect x="608.245" y="327.512" style="fill:#FAFAFA;" width="2.934" height="7.866"/>
			<rect x="590.655" y="340.708" style="fill:#FAFAFA;" width="2.934" height="7.866"/>
			<rect x="596.522" y="340.708" style="fill:#FAFAFA;" width="2.934" height="7.866"/>
			<rect x="602.378" y="340.708" style="fill:#FAFAFA;" width="2.934" height="7.866"/>
			<rect x="608.245" y="340.708" style="fill:#FAFAFA;" width="2.934" height="7.866"/>
		</g>
		<g>
			<path style="fill:#FAFAFA;" d="M375.119,391.449V265.555h-64.681v125.687L375.119,391.449z"/>
			<rect x="315.336" y="269.47" style="fill:#E0E0E0;" width="7.842" height="6.604"/>
			<rect x="331.021" y="269.47" style="fill:#E0E0E0;" width="7.843" height="6.604"/>
			<rect x="346.694" y="269.47" style="fill:#E0E0E0;" width="7.843" height="6.604"/>
			<rect x="362.38" y="269.47" style="fill:#E0E0E0;" width="7.842" height="6.604"/>
			<rect x="315.336" y="280.539" style="fill:#E0E0E0;" width="7.842" height="6.604"/>
			<rect x="331.021" y="280.539" style="fill:#E0E0E0;" width="7.843" height="6.604"/>
			<rect x="346.694" y="280.539" style="fill:#E0E0E0;" width="7.843" height="6.604"/>
			<rect x="362.38" y="280.539" style="fill:#E0E0E0;" width="7.842" height="6.604"/>
			<rect x="315.336" y="291.607" style="fill:#E0E0E0;" width="7.842" height="6.604"/>
			<rect x="331.021" y="291.607" style="fill:#E0E0E0;" width="7.843" height="6.604"/>
			<rect x="346.694" y="291.607" style="fill:#E0E0E0;" width="7.843" height="6.604"/>
			<rect x="362.38" y="291.607" style="fill:#E0E0E0;" width="7.842" height="6.604"/>
			<rect x="315.336" y="302.676" style="fill:#E0E0E0;" width="7.842" height="6.604"/>
			<rect x="331.021" y="302.676" style="fill:#E0E0E0;" width="7.843" height="6.604"/>
			<rect x="346.694" y="302.676" style="fill:#E0E0E0;" width="7.843" height="6.604"/>
			<rect x="362.38" y="302.676" style="fill:#E0E0E0;" width="7.842" height="6.604"/>
			<rect x="315.336" y="313.732" style="fill:#E0E0E0;" width="7.842" height="6.604"/>
			<rect x="331.021" y="313.732" style="fill:#E0E0E0;" width="7.843" height="6.604"/>
			<rect x="346.694" y="313.732" style="fill:#E0E0E0;" width="7.843" height="6.604"/>
			<rect x="362.38" y="313.732" style="fill:#E0E0E0;" width="7.842" height="6.604"/>
			<rect x="315.336" y="324.801" style="fill:#E0E0E0;" width="7.842" height="6.604"/>
			<rect x="331.021" y="324.801" style="fill:#E0E0E0;" width="7.843" height="6.604"/>
			<rect x="346.694" y="324.801" style="fill:#E0E0E0;" width="7.843" height="6.604"/>
			<rect x="362.38" y="324.801" style="fill:#E0E0E0;" width="7.842" height="6.604"/>
			<rect x="315.336" y="335.869" style="fill:#E0E0E0;" width="7.842" height="6.604"/>
			<rect x="331.021" y="335.869" style="fill:#E0E0E0;" width="7.843" height="6.604"/>
			<rect x="346.694" y="335.869" style="fill:#E0E0E0;" width="7.843" height="6.604"/>
			<rect x="362.38" y="335.869" style="fill:#E0E0E0;" width="7.842" height="6.604"/>
		</g>
	</g>
	<g>
		<path style="fill:#E6E6E6;" d="M350.061,373.018c-1.925-1.81-6.012,5.195-6.012,5.195s4.401-15.261-0.01-15.313
			c-4.411-0.051-4.631,13.02-4.631,13.02s-1.417-25.985-7.152-23.93c-5.735,2.056,2.635,25.248,2.635,25.248
			s-7.417-16.489-10.26-13.247c-2.843,3.242,6.529,17.035,6.529,17.035s-6.845-4.424-6.402-1.27
			c0.443,3.154,15.285,11.401,15.285,11.401C344.793,385.531,351.986,374.829,350.061,373.018z"/>
		<g>
			<path style="fill:#E0E0E0;" d="M340.074,391.561c-0.116,0-0.22-0.081-0.244-0.198c-0.023-0.111-2.345-11.198-3.668-18.676
				c-0.024-0.137,0.066-0.266,0.203-0.29c0.134-0.027,0.265,0.065,0.289,0.202c1.322,7.471,3.642,18.55,3.665,18.66
				c0.028,0.136-0.058,0.268-0.193,0.297C340.108,391.56,340.091,391.561,340.074,391.561z"/>
			<path style="fill:#E0E0E0;" d="M338.54,384.221c-0.073,0-0.146-0.032-0.195-0.093l-4.535-5.631
				c-0.087-0.108-0.069-0.266,0.038-0.352c0.106-0.086,0.264-0.069,0.352,0.037l4.535,5.631c0.086,0.108,0.069,0.266-0.038,0.352
				C338.65,384.202,338.595,384.221,338.54,384.221z"/>
		</g>
	</g>
	<g>
		<path style="fill:#E0E0E0;" d="M719.22,376.089c-1.404-2.238-7.13,3.506-7.13,3.506s8.117-13.652,3.862-14.818
			c-4.255-1.165-7.773,11.426-7.773,11.426s5.2-25.499-0.869-24.96c-6.068,0.538-3.835,25.094-3.835,25.094
			s-3.007-17.828-6.577-15.411c-3.57,2.417,2.01,18.132,2.01,18.132s-5.504-6.011-5.873-2.848
			c-0.369,3.163,11.905,14.895,11.905,14.895C710.96,386.862,720.625,378.327,719.22,376.089z"/>
		<g>
			<path style="fill:#E0E0E0;" d="M704.933,391.512c-0.004,0-0.008,0-0.013,0c-0.138-0.007-0.244-0.124-0.237-0.263
				c0.006-0.113,0.564-11.426,1.173-18.996c0.012-0.137,0.135-0.247,0.27-0.228c0.137,0.011,0.24,0.132,0.229,0.27
				c-0.608,7.562-1.166,18.867-1.171,18.98C705.176,391.407,705.065,391.512,704.933,391.512z"/>
			<path style="fill:#E0E0E0;" d="M705.304,384.022c-0.096,0-0.187-0.055-0.228-0.148l-2.965-6.595
				c-0.056-0.126,0-0.274,0.126-0.331c0.127-0.057,0.274,0,0.331,0.126l2.963,6.595c0.057,0.126,0.001,0.274-0.125,0.33
				C705.373,384.015,705.338,384.022,705.304,384.022z"/>
		</g>
	</g>
	<g>
		<g>
			<path style="fill:#E0E0E0;" d="M483.216,79.626c-2.206-1.667-5.424-1.855-7.81-0.458c-3.167-6.399-11.991-9.223-18.284-5.851
				c-1.642-6.895-8.435-12.195-15.523-12.11c-7.088,0.085-13.752,5.547-15.227,12.48c-0.234,1.102-0.39,2.309-1.178,3.114
				c-1.28,1.308-3.417,0.869-5.242,0.726c-5.74-0.448-11.515,3.582-13.077,9.124l79.045-0.288
				C486.613,83.685,485.422,81.292,483.216,79.626z"/>
		</g>
	</g>
	<g>
		<g>
			<path style="fill:#E0E0E0;" d="M165.952,90.502c-2.077-1.569-5.106-1.747-7.352-0.431c-2.981-6.024-11.288-8.682-17.213-5.509
				c-1.546-6.491-7.941-11.48-14.613-11.4c-6.672,0.08-12.946,5.222-14.335,11.749c-0.221,1.037-0.367,2.174-1.109,2.931
				c-1.205,1.231-3.217,0.818-4.935,0.684c-5.404-0.421-10.841,3.372-12.31,8.589l74.413-0.271
				C169.15,94.324,168.028,92.071,165.952,90.502z"/>
		</g>
	</g>
	<g>
		<g>
			<path style="fill:#F5F5F5;" d="M637.749,74.603c-1.702-1.286-4.184-1.431-6.024-0.353c-2.443-4.936-9.249-7.114-14.104-4.514
				c-1.266-5.319-6.507-9.407-11.974-9.341c-5.467,0.066-10.608,4.279-11.746,9.627c-0.181,0.85-0.301,1.781-0.908,2.402
				c-0.988,1.009-2.636,0.67-4.044,0.56c-4.427-0.345-8.883,2.763-10.087,7.038l60.973-0.222
				C640.37,77.735,639.451,75.888,637.749,74.603z"/>
		</g>
	</g>
	<g>
		<g>
			<path style="fill:#F5F5F5;" d="M390.662,126.572c-1.228-0.928-3.02-1.033-4.347-0.255c-1.763-3.562-6.675-5.134-10.178-3.257
				c-0.914-3.838-4.695-6.788-8.641-6.741c-3.945,0.048-7.655,3.088-8.476,6.947c-0.13,0.613-0.217,1.285-0.655,1.733
				c-0.713,0.728-1.902,0.484-2.918,0.404c-3.195-0.249-6.41,1.994-7.279,5.079l44-0.16
				C392.553,128.832,391.89,127.5,390.662,126.572z"/>
		</g>
	</g>
	<g>
		<g>
			<path style="fill:#E0E0E0;" d="M163.638,130.67c-1.228-0.928-3.02-1.033-4.347-0.255c-1.763-3.562-6.675-5.134-10.178-3.257
				c-0.914-3.838-4.696-6.788-8.641-6.741c-3.945,0.048-7.655,3.088-8.476,6.947c-0.13,0.613-0.217,1.285-0.656,1.733
				c-0.713,0.728-1.902,0.484-2.918,0.404c-3.195-0.249-6.41,1.994-7.279,5.079l44-0.16
				C165.529,132.93,164.866,131.598,163.638,130.67z"/>
		</g>
	</g>
	<g>
		<g>
			<path style="fill:#F0F0F0;" d="M300.201,189.188c-2.184-1.65-5.37-1.837-7.732-0.453c-3.135-6.335-11.871-9.131-18.101-5.793
				c-1.625-6.826-8.351-12.073-15.368-11.989c-7.017,0.085-13.614,5.492-15.075,12.355c-0.232,1.091-0.386,2.286-1.166,3.082
				c-1.268,1.295-3.383,0.86-5.189,0.719c-5.682-0.443-11.4,3.546-12.946,9.032l78.254-0.285
				C303.564,193.208,302.384,190.838,300.201,189.188z"/>
		</g>
	</g>
</g>
<g id="Background_simple" style="display:none;">
	<g style="display:inline;">
		<path style="fill:#407BFF;" d="M553.878,156.437c-4.206-13.032-13.16-25.599-27.205-36.744
			c-16.554-13.136-42.342-26.558-76.073-22.594c-62.272,7.319-63.406,42.428-105.277,35.418
			c-47.428-7.94-103.06-2.615-118.531,33.015c-29.384,67.674,142.548,149.483,237.024,126.506
			C522.633,277.733,576.208,225.633,553.878,156.437z"/>
		<path style="opacity:0.9;fill:#FFFFFF;" d="M553.878,156.437c-4.206-13.032-13.16-25.599-27.205-36.744
			c-16.554-13.136-42.342-26.558-76.073-22.594c-62.272,7.319-63.406,42.428-105.277,35.418
			c-47.428-7.94-103.06-2.615-118.531,33.015c-29.384,67.674,142.548,149.483,237.024,126.506
			C522.633,277.733,576.208,225.633,553.878,156.437z"/>
	</g>
</g>
<g id="Shadow">
	<g>
		<g>
			<path style="fill:#F5F5F5;" d="M702.568,470.042c0,3.387-147.478,6.132-329.401,6.132s-329.401-2.745-329.401-6.132
				c0-3.387,147.478-6.132,329.401-6.132S702.568,466.655,702.568,470.042z"/>
		</g>
	</g>
</g>
<g id="Sun">
	<g id="freepik--Sun--inject-5_00000090270557615028996600000010167422685422824876_">
		<g>
			<g>
				<path style="fill:#407BFF;" d="M305.837,97.119c0,3.223-4.661,5.783-5.457,8.751c-0.796,2.968,1.907,7.619,0.357,10.301
					c-1.55,2.682-6.895,2.631-9.108,4.834c-2.213,2.203-2.111,7.537-4.834,9.108c-2.723,1.571-7.231-1.173-10.301-0.357
					c-3.07,0.816-5.538,5.456-8.751,5.456c-3.213,0-5.783-4.661-8.751-5.456c-2.968-0.796-7.608,1.917-10.301,0.357
					c-2.693-1.56-2.621-6.895-4.834-9.108c-2.213-2.213-7.527-2.101-9.108-4.834c-1.581-2.733,1.173-7.262,0.357-10.321
					c-0.816-3.06-5.456-5.528-5.456-8.751c0-3.223,4.661-5.772,5.456-8.741c0.796-2.968-1.907-7.619-0.357-10.301
					c1.55-2.682,6.895-2.631,9.108-4.845c2.213-2.213,2.111-7.527,4.834-9.108c2.723-1.581,7.231,1.183,10.301,0.357
					c3.07-0.826,5.538-5.446,8.751-5.446s5.783,4.661,8.751,5.446c2.968,0.785,7.608-1.907,10.301-0.357
					c2.693,1.55,2.621,6.895,4.834,9.108c2.213,2.213,7.527,2.111,9.108,4.845c1.581,2.733-1.173,7.231-0.357,10.301
					C301.196,91.428,305.837,93.907,305.837,97.119z"/>
			</g>
			<g style="opacity:0.7;enable-background:new    ;">
				<path style="fill:#FFFFFF;" d="M305.837,97.119c0,3.223-4.661,5.783-5.457,8.751c-0.796,2.968,1.907,7.619,0.357,10.301
					c-1.55,2.682-6.895,2.631-9.108,4.834c-2.213,2.203-2.111,7.537-4.834,9.108c-2.723,1.571-7.231-1.173-10.301-0.357
					c-3.07,0.816-5.538,5.456-8.751,5.456c-3.213,0-5.783-4.661-8.751-5.456c-2.968-0.796-7.608,1.917-10.301,0.357
					c-2.693-1.56-2.621-6.895-4.834-9.108c-2.213-2.213-7.527-2.101-9.108-4.834c-1.581-2.733,1.173-7.262,0.357-10.321
					c-0.816-3.06-5.456-5.528-5.456-8.751c0-3.223,4.661-5.772,5.456-8.741c0.796-2.968-1.907-7.619-0.357-10.301
					c1.55-2.682,6.895-2.631,9.108-4.845c2.213-2.213,2.111-7.527,4.834-9.108c2.723-1.581,7.231,1.183,10.301,0.357
					c3.07-0.826,5.538-5.446,8.751-5.446s5.783,4.661,8.751,5.446c2.968,0.785,7.608-1.907,10.301-0.357
					c2.693,1.55,2.621,6.895,4.834,9.108c2.213,2.213,7.527,2.111,9.108,4.845c1.581,2.733-1.173,7.231-0.357,10.301
					C301.196,91.428,305.837,93.907,305.837,97.119z"/>
			</g>
		</g>
		
			<ellipse transform="matrix(0.2698 -0.9629 0.9629 0.2698 101.9995 328.7317)" style="fill:#407BFF;" cx="267.741" cy="97.115" rx="27.221" ry="27.221"/>
		
			<ellipse transform="matrix(0.2698 -0.9629 0.9629 0.2698 101.9995 328.7317)" style="opacity:0.5;fill:#FFFFFF;enable-background:new    ;" cx="267.741" cy="97.115" rx="27.221" ry="27.221"/>
	</g>
</g>
<g id="Sign">
	<g>
		<rect x="614.561" y="258.147" style="fill:#263238;" width="7.53" height="194.432"/>
		<rect x="614.561" y="258.147" style="opacity:0.3;fill:#FFFFFF;" width="7.53" height="194.432"/>
		<path style="fill:#407BFF;" d="M649.274,261.1h-58.017c-3.273,0-5.927-2.654-5.927-5.927v-84.772c0-3.273,2.654-5.927,5.927-5.927
			h58.017c3.273,0,5.927,2.654,5.927,5.927v84.772C655.201,258.447,652.547,261.1,649.274,261.1z"/>
		<path style="fill:#FFFFFF;" d="M647.965,258.647h-55.398c-1.772,0-3.212-1.44-3.212-3.212v-83.882c0-1.771,1.44-3.212,3.212-3.212
			h55.398c1.771,0,3.212,1.441,3.212,3.212v83.882C651.177,257.206,649.736,258.647,647.965,258.647z M592.566,169.34
			c-1.22,0-2.212,0.993-2.212,2.212v83.882c0,1.22,0.992,2.212,2.212,2.212h55.398c1.22,0,2.212-0.992,2.212-2.212v-83.882
			c0-1.22-0.992-2.212-2.212-2.212H592.566z"/>
		<g>
			<path style="fill:#FFFFFF;" d="M632.332,187.83c2.521,1.142,4.463,2.761,5.825,4.859c1.362,2.099,2.044,4.583,2.044,7.455
				c0,2.835-0.682,5.311-2.044,7.427c-1.362,2.117-3.305,3.737-5.825,4.859c-2.522,1.124-5.495,1.685-8.919,1.685h-7.786v10.658
				h-8.946v-38.655h16.732C626.837,186.118,629.81,186.689,632.332,187.83z M629.046,205.087c1.398-1.16,2.099-2.807,2.099-4.942
				c0-2.172-0.7-3.838-2.099-4.997c-1.399-1.16-3.442-1.74-6.13-1.74h-7.289v13.419h7.289
				C625.604,206.826,627.646,206.247,629.046,205.087z"/>
		</g>
	</g>
</g>
<g id="Car">
	<g>
		<g>
			<polygon style="fill:#263238;" points="200.63,427.642 689.205,438.514 689.205,359.187 195.93,359.187 			"/>
			<polygon style="opacity:0.5;enable-background:new    ;" points="200.63,427.642 689.205,438.514 689.205,359.187 
				195.93,359.187 			"/>
			<g id="freepik--Car--inject-7_00000157273973928418213890000011371406575925539499_">
				<path style="fill:#263238;" d="M707.997,379.54v40.232c0.003,8.619-5.913,16.232-14.588,18.773l-3.453,0.996
					c-2.126,0.626-4.346,0.919-6.572,0.866l-22.818-0.505c2.71-9.003,2.949-18.514,0.693-27.63
					c-7.302-29.503-38.416-47.801-69.495-40.869c-31.079,6.932-50.354,36.469-43.052,65.972l-232.181-5.242
					c0.376-2.575,0.559-5.172,0.547-7.771c-0.139-30.307-26.132-54.768-58.057-54.635c-31.925,0.132-57.692,24.808-57.553,55.114
					c0,1.069,0.091,2.123,0.091,3.177c-0.304-0.115-0.624-0.231-0.928-0.375l-7.941-3.365c-7.832-3.358-12.866-10.759-12.869-18.917
					v-81.937c-0.001-7.707,4.497-14.781,11.683-18.369l59.677-29.792c0.683-0.345,1.208-0.918,1.475-1.608
					c0.599-1.55-0.238-3.267-1.871-3.836l-7.302-2.484c-0.613-0.2-1.053-0.712-1.136-1.322c-0.121-0.886,0.538-1.697,1.471-1.811
					c28.355-3.755,138.643-17.445,196.616-10.715c66.872,7.769,130.96,62.861,130.96,62.861
					c49.211-1.747,95.151,14.513,114.927,22.672c6.385,2.646,11.295,7.727,13.523,13.993l6.769,19.033
					C707.499,374.456,707.967,376.987,707.997,379.54z"/>
				<path style="opacity:0.4;fill:#FFFFFF;enable-background:new    ;" d="M707.997,379.54v40.232
					c0.003,8.619-5.913,16.232-14.588,18.773l-3.453,0.996c-2.126,0.626-4.346,0.919-6.572,0.866l-22.818-0.505
					c2.71-9.003,2.949-18.514,0.693-27.63c-7.302-29.503-38.416-47.801-69.495-40.869c-31.079,6.932-50.354,36.469-43.052,65.972
					l-232.181-5.242c0.376-2.575,0.559-5.172,0.547-7.771c-0.139-30.307-26.132-54.768-58.057-54.635
					c-31.925,0.132-57.692,24.808-57.553,55.114c0,1.069,0.091,2.123,0.091,3.177c-0.304-0.115-0.624-0.231-0.928-0.375
					l-7.941-3.365c-7.832-3.358-12.866-10.759-12.869-18.917v-81.937c-0.001-7.707,4.497-14.781,11.683-18.369l59.677-29.792
					c0.683-0.345,1.208-0.918,1.475-1.608c0.599-1.55-0.238-3.267-1.871-3.836l-7.302-2.484c-0.613-0.2-1.053-0.712-1.136-1.322
					c-0.121-0.886,0.538-1.697,1.471-1.811c28.355-3.755,138.643-17.445,196.616-10.715c66.872,7.769,130.96,62.861,130.96,62.861
					c49.211-1.747,95.151,14.513,114.927,22.672c6.385,2.646,11.295,7.727,13.523,13.993l6.769,19.033
					C707.499,374.456,707.967,376.987,707.997,379.54z"/>
				<path style="fill:#263238;" d="M316.47,432.134c0.337-2.418,0.505-4.854,0.502-7.293c0-1.242-0.046-2.469-0.122-3.697
					l41.985-16.304c2.458-0.95,5.11-1.359,7.758-1.199l146.036,9.098c2.387,0.143,4.718,0.753,6.845,1.791l27.747,13.546
					c0.198,3.132,0.671,6.243,1.415,9.3L316.47,432.134z"/>
				<path style="fill:#263238;" d="M179.805,405.36v-2.094l23.746,6.903c-1.385,4.78-2.086,9.715-2.084,14.672
					c0,1.069,0.091,2.123,0.091,3.177c-0.304-0.115-0.624-0.231-0.928-0.375l-7.956-3.365
					C184.842,420.919,179.808,413.518,179.805,405.36z"/>
				<path style="fill:#263238;" d="M701.258,434.213c-2.266,1.99-4.975,3.47-7.926,4.332l-3.453,0.996
					c-2.126,0.626-4.346,0.918-6.572,0.866l-22.818-0.505c0.826-2.738,1.421-5.534,1.78-8.361L701.258,434.213z"/>
				<path style="fill:#263238;" d="M259.12,364.81c2.624,0,5.246,0.154,7.85,0.463c34.647,4.107,59.227,34.1,54.9,66.991
					l-5.476-0.13c0.376-2.575,0.559-5.172,0.547-7.771c-0.139-30.307-26.132-54.768-58.057-54.635
					c-31.925,0.132-57.692,24.808-57.553,55.114c0,1.069,0.091,2.123,0.091,3.177c-0.304-0.115-0.624-0.231-0.928-0.375
					l-4.564-1.964c0-0.289,0-0.563,0-0.837c0.042-33.143,28.339-59.999,63.252-60.031L259.12,364.81z"/>
				<path style="fill:#263238;" d="M604.905,364.81c5.401-0.001,10.779,0.654,16.004,1.95c33.79,8.382,54.024,41.181,45.194,73.258
					l-5.613-0.115c2.71-9.003,2.949-18.514,0.693-27.63c-7.302-29.503-38.416-47.801-69.495-40.869
					c-31.079,6.932-50.354,36.468-43.052,65.972l-5.598-0.13c-0.911-4.088-1.369-8.255-1.368-12.433
					C541.678,391.667,569.989,364.803,604.905,364.81L604.905,364.81z"/>
				<path style="fill:#407BFF;" d="M549.877,318.653c0.676,0.543,1.156,1.324,1.358,2.208c0.479,2.094-0.7,4.204-2.633,4.713
					l-24.135,6.422c-2.138,0.575-4.356,0.734-6.549,0.469l-178.952-21.047c-4.355-0.525-8.415-2.664-11.49-6.053l-23.475-25.962
					c-0.782-0.858-1.277-1.973-1.407-3.168c-0.32-2.954,1.632-5.62,4.36-5.954c42.852-5.394,97.032-10.298,131.245-6.33
					C483.039,269.145,528.183,301.142,549.877,318.653z"/>
				<path style="opacity:0.8;fill:#FFFFFF;enable-background:new    ;" d="M549.07,318.653c0.676,0.543,1.156,1.324,1.358,2.208
					c0.479,2.094-0.7,4.204-2.633,4.713l-24.135,6.422c-2.138,0.575-4.356,0.734-6.549,0.469L342.165,321.08
					c-4.355-0.525-11.086-8.122-15.846-14.29l-23.125-27.388c-0.782-0.858-1.277-1.973-1.407-3.168
					c-0.321-2.954,1.632-5.62,4.36-5.954c42.852-5.394,97.033-10.298,131.245-6.33C482.232,269.145,527.376,301.142,549.07,318.653z
					"/>
				<g style="opacity:0.3;">
					<path d="M432.168,334.839c1.146-0.392,1.74-1.592,1.328-2.68l0,0c-0.507-1.347-1.826-2.267-3.331-2.325l-21.297-0.852
						c-0.288-0.012-0.576,0.029-0.847,0.121c-1.155,0.392-1.757,1.599-1.344,2.695l0,0c0.516,1.347,1.838,2.265,3.347,2.325
						l21.297,0.837C431.609,334.973,431.897,334.932,432.168,334.839z"/>
				</g>
				<path style="fill:#407BFF;" d="M273.788,276.915c1.883,1.59,2.052,4.328,0.377,6.116l-5.05,5.213
					c-0.58,0.585-1.316,1.009-2.13,1.227l-61.867,16.289c-1.076,0.276-2.186,0.416-3.301,0.419h-12.291
					c0.639-0.404,1.293-0.78,1.977-1.126l59.677-29.82c0.001,0,0.002-0.001,0.004-0.002c1.506-0.706,2.125-2.438,1.381-3.868
					l19.38,4.607C272.628,276.145,273.259,276.469,273.788,276.915z"/>
				<path style="fill:#FFFFFF;enable-background:new    ;" d="M659.037,346.685l21.109-2.182l12.128,4.709
					c2.55,0.99,4.454,3.069,5.133,5.603l0,0c0.398,1.466,0.174,3.022-0.624,4.332l-0.213,0.347c-1.356,2.217-3.987,3.437-6.663,3.09
					l-12.169-1.589c-1.187-0.161-2.311-0.603-3.271-1.285l-14.041-10.109L659.037,346.685z"/>
				<path style="fill:#407BFF;" d="M571.348,316.318l-3.362,0.91c-2.612,0.708-5.424,0.134-7.5-1.531
					c-19.563-15.712-53.577-39.813-90.283-51.048c-0.163-0.051-0.3-0.158-0.384-0.299c-0.185-0.313-0.068-0.709,0.262-0.885
					l4.564-2.224C527.598,278.671,571.348,316.318,571.348,316.318z"/>
				<path style="opacity:0.8;fill:#FFFFFF;enable-background:new    ;" d="M571.348,316.318l-3.362,0.91
					c-2.612,0.708-5.424,0.134-7.5-1.531c-19.563-15.712-53.577-39.813-90.283-51.048c-0.163-0.051-0.3-0.158-0.384-0.299
					c-0.185-0.313-0.068-0.709,0.262-0.885l4.564-2.224C527.598,278.671,571.348,316.318,571.348,316.318z"/>
				<path style="opacity:0.2;fill:#FFFFFF;enable-background:new    ;" d="M370.731,337.531l177.905,12.077l-3.348,20.829
					c-1.026,6.381-3.518,12.47-7.299,17.834l-14.87,21.096l-151.841-19.488l-71.786-52.348H370.731z"/>
				<ellipse style="fill:#263238;" cx="259.176" cy="424.835" rx="48.161" ry="45.72"/>
				<ellipse style="opacity:0.4;fill:#FFFFFF;enable-background:new    ;" cx="259.176" cy="424.835" rx="29.527" ry="28.03"/>
				<g style="opacity:0.3;">
					<path style="fill:#FFFFFF;" d="M256.808,401.865v14.369c0,1.236,1.056,2.238,2.358,2.238h0.015
						c1.302,0,2.358-1.002,2.358-2.238v-14.369c0-1.236-1.056-2.238-2.358-2.238h-0.015
						C257.864,399.627,256.808,400.629,256.808,401.865z"/>
				</g>
				<g style="opacity:0.3;">
					<path style="fill:#FFFFFF;" d="M256.808,433.448v14.369c0,1.236,1.056,2.238,2.358,2.238h0.015
						c1.302,0,2.358-1.002,2.358-2.238v-14.369c0-1.236-1.056-2.238-2.358-2.238h-0.015
						C257.864,431.209,256.808,432.211,256.808,433.448z"/>
				</g>
				<g style="opacity:0.3;">
					<path style="fill:#FFFFFF;" d="M250.154,422.486c1.131,0.612,2.571,0.238,3.216-0.836l0,0c0.001-0.002,0.002-0.004,0.004-0.006
						c0.648-1.072,0.259-2.44-0.871-3.056l-13.098-7.221c-1.134-0.621-2.584-0.253-3.24,0.823l0,0
						c-0.644,1.074-0.257,2.439,0.867,3.061l13.098,7.22C250.138,422.477,250.146,422.481,250.154,422.486z"/>
				</g>
				<g style="opacity:0.3;">
					<path style="fill:#FFFFFF;" d="M278.963,438.216c1.129,0.616,2.57,0.246,3.219-0.827l0,0c0.001-0.002,0.002-0.004,0.004-0.006
						c0.648-1.072,0.259-2.44-0.871-3.056l-13.098-7.22c0,0-0.001,0-0.001-0.001c-1.126-0.622-2.569-0.259-3.224,0.809l0,0
						c-0.657,1.073-0.276,2.448,0.852,3.076l13.113,7.22C278.959,438.214,278.961,438.215,278.963,438.216z"/>
				</g>
				<g style="opacity:0.3;">
					<path style="fill:#FFFFFF;" d="M239.406,438.271l13.098-7.22c1.134-0.623,1.521-1.999,0.867-3.076l0,0
						c-0.661-1.071-2.11-1.432-3.24-0.809l-13.098,7.22c-1.124,0.622-1.511,1.988-0.867,3.061l0,0
						C236.821,438.524,238.271,438.892,239.406,438.271z"/>
				</g>
				<g style="opacity:0.3;">
					<path style="fill:#FFFFFF;" d="M264.996,421.655c0.652,1.07,2.094,1.436,3.221,0.817l13.098-7.22
						c0.002-0.001,0.004-0.002,0.006-0.003c1.127-0.619,1.513-1.988,0.861-3.058l0,0c-0.001-0.002-0.002-0.004-0.004-0.006
						c-0.652-1.07-2.094-1.436-3.221-0.817l-13.113,7.221c-0.001,0-0.001,0-0.001,0.001c-1.125,0.622-1.506,1.993-0.851,3.061l0,0
						C264.993,421.651,264.995,421.653,264.996,421.655z"/>
				</g>
				<path style="fill:#263238;" d="M263.136,424.826c0-2.074-1.771-3.755-3.955-3.755c-0.005,0-0.01,0-0.015,0
					c-2.193,0-3.97,1.688-3.97,3.769c0,2.082,1.778,3.769,3.97,3.769c2.193,0,3.97-1.687,3.97-3.769
					C263.136,424.836,263.136,424.831,263.136,424.826z"/>
				<ellipse style="fill:#263238;" cx="604.907" cy="424.844" rx="48.161" ry="45.72"/>
				<ellipse style="opacity:0.4;fill:#FFFFFF;enable-background:new    ;" cx="604.907" cy="424.844" rx="29.527" ry="28.03"/>
				<g style="opacity:0.3;">
					<path style="fill:#FFFFFF;" d="M602.547,401.865v14.369c0,1.236,1.056,2.238,2.358,2.238h0.015
						c1.302,0,2.358-1.002,2.358-2.238v-14.369c0-1.236-1.056-2.238-2.358-2.238h-0.015
						C603.603,399.627,602.547,400.629,602.547,401.865z"/>
				</g>
				<g style="opacity:0.3;">
					<path style="fill:#FFFFFF;" d="M602.547,433.448v14.369c0,1.236,1.056,2.238,2.358,2.238h0.015
						c1.302,0,2.358-1.002,2.358-2.238v-14.369c0-1.236-1.056-2.238-2.358-2.238h-0.015
						C603.603,431.209,602.547,432.211,602.547,433.448z"/>
				</g>
				<g style="opacity:0.3;">
					<path style="fill:#FFFFFF;" d="M595.902,422.49c1.126,0.605,2.555,0.228,3.192-0.841l0,0c0,0,0.001-0.001,0.001-0.001
						c0.655-1.069,0.273-2.439-0.853-3.06l-13.113-7.221c-0.002-0.001-0.004-0.002-0.006-0.003c-1.129-0.616-2.57-0.246-3.219,0.826
						l0,0c-0.001,0.002-0.002,0.004-0.003,0.006c-0.648,1.072-0.259,2.44,0.871,3.056l13.097,7.22
						C595.88,422.479,595.891,422.484,595.902,422.49z"/>
				</g>
				<g style="opacity:0.3;">
					<path style="fill:#FFFFFF;" d="M627.921,437.39L627.921,437.39c0.001-0.002,0.002-0.004,0.003-0.006
						c0.648-1.072,0.259-2.44-0.871-3.056l-13.098-7.22c-1.13-0.624-2.579-0.262-3.24,0.809l0,0
						c-0.655,1.077-0.267,2.453,0.867,3.076l13.098,7.22C625.815,438.834,627.265,438.466,627.921,437.39z"/>
				</g>
				<g style="opacity:0.3;">
					<path style="fill:#FFFFFF;" d="M581.908,437.453c0.652,1.07,2.094,1.436,3.221,0.817l13.113-7.22
						c1.128-0.627,1.509-2.003,0.852-3.076l0,0c0,0,0-0.001-0.001-0.001c-0.655-1.068-2.099-1.43-3.224-0.807l-13.097,7.22
						c-0.002,0.001-0.004,0.002-0.006,0.003c-1.127,0.619-1.513,1.988-0.861,3.058l0,0
						C581.906,437.45,581.907,437.452,581.908,437.453z"/>
				</g>
				<g style="opacity:0.3;">
					<path style="fill:#FFFFFF;" d="M610.73,421.672c0.658,1.067,2.102,1.425,3.226,0.8l13.098-7.22
						c0.002-0.001,0.004-0.002,0.006-0.003c1.127-0.619,1.513-1.988,0.861-3.058l0,0c-0.656-1.076-2.106-1.444-3.24-0.823
						l-13.098,7.221c-0.002,0.001-0.004,0.002-0.006,0.003c-1.127,0.619-1.513,1.988-0.861,3.058l0,0
						C610.721,421.657,610.725,421.665,610.73,421.672z"/>
				</g>
				<path style="fill:#263238;" d="M604.905,421.072L604.905,421.072c-2.193,0-3.97,1.688-3.97,3.769
					c0,2.082,1.778,3.769,3.97,3.769c2.193,0,3.97-1.687,3.97-3.769C608.876,422.759,607.098,421.072,604.905,421.072z"/>
				<path style="opacity:0.3;enable-background:new    ;" d="M184.858,338.587c-1.604-0.474-2.5-2.093-2.001-3.616
					c0.559-9.625,2.714-18.195,8.93-24.087c0.417-1.296,1.726-2.143,3.149-2.036l36.707,3.293c0.639,0.065,1.239,0.32,1.716,0.729
					c1.246,1.07,1.343,2.896,0.216,4.079l-10.511,10.759c-0.365,0.372-0.827,0.646-1.339,0.794l-35.14,10.109
					C186.019,338.761,185.419,338.753,184.858,338.587z"/>
				<path style="fill:#263238;" d="M551.235,320.844c0.479,2.094-0.7,4.204-2.633,4.713l-24.135,6.422
					c-2.138,0.575-3.928,0.969-6.708,1.088l-7.599-0.478l7.166-36.754c16.552,10.32,17.687,10.791,32.55,22.802
					C550.552,319.18,551.033,319.961,551.235,320.844z"/>
				<path style="fill:#263238;" d="M394.011,262.764l15.162,62.762l-19.833-1.353l-9.057-60.822
					C384.924,263.099,389.5,262.904,394.011,262.764z"/>
				<path style="fill:#263238;" d="M331.08,312.435l-27.857-33.032c-0.801-0.865-1.308-1.998-1.437-3.213
					c-0.314-2.955,1.645-5.615,4.374-5.941c5.707-0.736,11.78-1.444,17.853-2.136"/>
				<g>
					<path style="fill:#263238;" d="M529.283,327.225c4.822,0.054,8.777-3.613,8.834-8.19l0,0c0.047-3.893-2.763-7.294-6.756-8.18
						l-11.635-2.59l-2.96,18.509l12.286,0.445C529.129,327.222,529.206,327.224,529.283,327.225z"/>
					<path style="opacity:0.4;fill:#FFFFFF;enable-background:new    ;" d="M529.283,327.225c4.822,0.054,8.777-3.613,8.834-8.19
						l0,0c0.047-3.893-2.763-7.294-6.756-8.18l-11.635-2.59l-2.96,18.509l12.286,0.445
						C529.129,327.222,529.206,327.224,529.283,327.225z"/>
					<polygon style="opacity:0.3;enable-background:new    ;" points="520.172,326.9 516.766,326.774 519.726,308.265 
						523.048,309.011 					"/>
				</g>
			</g>
			<path style="opacity:0.6;" d="M404.897,406.278c-0.114,0-0.218-0.079-0.244-0.195c-0.128-0.571-12.847-57.23-14.475-64.953
				c-0.63-2.994-0.857-8.699-0.677-16.959c0.003-0.138,0.138-0.253,0.256-0.244c0.138,0.003,0.247,0.117,0.244,0.256
				c-0.181,8.221,0.044,13.888,0.667,16.844c1.626,7.721,14.344,64.376,14.473,64.947c0.03,0.135-0.055,0.269-0.19,0.299
				C404.934,406.276,404.915,406.278,404.897,406.278z"/>
			<path style="opacity:0.6;" d="M519.475,414.78c-0.051,0-0.101-0.015-0.146-0.047c-0.112-0.08-0.139-0.235-0.058-0.349
				c0.164-0.232,16.559-23.263,22.183-32.889c5.741-9.831,9.601-58.799,9.639-59.292c0.01-0.137,0.104-0.258,0.268-0.229
				c0.138,0.011,0.24,0.131,0.229,0.269c-0.156,2.02-3.906,49.575-9.705,59.505c-5.635,9.646-22.042,32.695-22.208,32.928
				C519.63,414.744,519.553,414.78,519.475,414.78z"/>
			<path style="opacity:0.6;" d="M680.146,344.753c-0.03,0-0.06-0.006-0.091-0.017c-12.268-4.764-53.083-14.11-62.276-15.509
				c-11.94-1.816-52.694-11.363-53.104-11.46c-0.135-0.031-0.219-0.166-0.186-0.3c0.03-0.134,0.167-0.22,0.3-0.186
				c0.41,0.096,41.146,9.639,53.067,11.452c9.467,1.44,49.798,10.65,62.382,15.536c0.128,0.051,0.192,0.195,0.143,0.324
				C680.34,344.692,680.245,344.753,680.146,344.753z"/>
			<path style="opacity:0.8;fill:#FFFFFF;enable-background:new    ;" d="M273.788,276.915c1.883,1.59,2.052,4.328,0.377,6.116
				l-5.05,5.213c-0.58,0.585-1.316,1.009-2.13,1.227l-61.867,16.289c-1.076,0.276-2.186,0.416-3.301,0.419h-12.291
				c0.639-0.404,1.293-0.78,1.977-1.126l59.677-29.82c0.001,0,0.002-0.001,0.004-0.002c1.506-0.706,2.125-2.438,1.381-3.868
				l19.38,4.607C272.628,276.145,273.259,276.469,273.788,276.915z"/>
		</g>
	</g>
</g>
<g id="Parking_machine">
	<g>
		<rect x="42.997" y="169.187" style="fill:#263238;" width="107.436" height="301.376"/>
		<rect x="42.997" y="169.187" style="opacity:0.2;fill:#FFFFFF;enable-background:new    ;" width="107.436" height="301.376"/>
		<rect x="42.997" y="169.187" style="opacity:0.3;" width="57.308" height="301.376"/>
		<rect x="105.453" y="178.053" style="opacity:0.3;" width="39.597" height="31.013"/>
		<rect x="106.561" y="214.327" style="opacity:0.3;" width="31.033" height="7.476"/>
		<rect x="106.561" y="227.668" width="38.489" height="38.489"/>
		<rect x="111.031" y="232.957" style="fill:#263238;" width="29.92" height="2.678"/>
		<rect x="111.031" y="238.545" style="fill:#263238;" width="8.31" height="2.678"/>
		<rect x="111.031" y="245.167" style="fill:#263238;" width="29.92" height="2.678"/>
		<rect x="111.031" y="250.014" style="fill:#263238;" width="20.922" height="2.678"/>
		<polygon style="opacity:0.3;" points="106.561,266.157 110.628,276.487 148.294,276.487 145.049,266.157 		"/>
		<rect x="110.418" y="287.794" style="opacity:0.3;" width="34.018" height="29.305"/>
		<path style="fill:#263238;" d="M89.114,246.913H52.409c-0.625,0-1.132-0.507-1.132-1.132v-55.37c0-0.625,0.507-1.132,1.132-1.132
			h36.705c0.625,0,1.132,0.507,1.132,1.132v55.37C90.246,246.406,89.739,246.913,89.114,246.913z"/>
		<rect x="54.214" y="317.099" style="opacity:0.3;" width="36.032" height="153.465"/>
		<g>
			<path style="fill:#FFFFFF;" d="M75.721,201.745c1.113,0.504,1.972,1.22,2.573,2.147c0.602,0.927,0.902,2.024,0.902,3.293
				c0,1.252-0.301,2.346-0.902,3.281c-0.602,0.936-1.46,1.651-2.573,2.146c-1.114,0.497-2.427,0.744-3.94,0.744h-3.439v4.708H64.39
				v-17.075h7.392C73.294,200.989,74.606,201.241,75.721,201.745z M74.27,209.368c0.617-0.512,0.927-1.24,0.927-2.183
				c0-0.96-0.31-1.695-0.927-2.208c-0.618-0.512-1.521-0.769-2.708-0.769h-3.22v5.928h3.22
				C72.748,210.136,73.651,209.88,74.27,209.368z"/>
		</g>
		<rect x="55.321" y="225.422" style="fill:#FFFFFF;" width="30.881" height="2.247"/>
		<rect x="55.321" y="230.994" style="fill:#FFFFFF;" width="30.881" height="2.247"/>
		<rect x="55.321" y="236.748" style="fill:#FFFFFF;" width="13.812" height="2.246"/>
		<rect x="141.447" y="214.048" style="fill:#263238;" width="3.602" height="7.754"/>
		<path style="fill:#263238;" d="M142.817,459.558h-35.131v-130.92h35.131V459.558z M108.186,459.058h34.131v-129.92h-34.131
			V459.058z"/>
	</g>
</g>
<g id="Character">
	<g>
		<g>
			<g>
				<path style="fill:#B97964;" d="M240.189,431.738l9.314-7.334c5.939,6.762,10.728,13.497,14.346,17.519l-2.245,5.272
					l-6.066-1.217C255.538,445.978,249.098,439.077,240.189,431.738z"/>
				<g>
					<g>
						<g>
							<g>
								<path style="fill:#407BFF;" d="M249.111,441.45l3.622-2.308c3.708,1.875,4.448,0.379,4.902-2.951
									c0.972-0.792,2.023,0.234,2.315,0.503l6.532,5.909c0.552,0.489,0.603,1.334,0.114,1.886c-0.087,0.098-0.188,0.183-0.3,0.252
									c-3.199,2.038-4.713,3.002-8.694,5.538l-12.177,7.757c-3.32,2.115-6.138-0.792-4.968-1.973
									c5.283-5.276,8.484-9.858,9.245-12.858C249.857,442.668,249.346,442.664,249.111,441.45z"/>
								<path style="fill:#263238;" d="M251.732,444.914c-0.036,0-0.072-0.008-0.107-0.025c-0.92-0.434-2.021-0.439-2.943-0.015
									c-0.125,0.057-0.274,0.004-0.332-0.122c-0.058-0.125-0.003-0.273,0.123-0.331c1.056-0.487,2.314-0.482,3.367,0.017
									c0.125,0.059,0.178,0.208,0.119,0.333C251.915,444.861,251.826,444.914,251.732,444.914z"/>
								<path style="fill:#263238;" d="M250.88,447.19c-0.036,0-0.072-0.008-0.107-0.025c-0.919-0.434-2.019-0.442-2.943-0.015
									c-0.124,0.057-0.273,0.003-0.332-0.123c-0.058-0.125-0.003-0.273,0.123-0.332c1.056-0.487,2.315-0.48,3.366,0.019
									c0.125,0.059,0.178,0.208,0.119,0.333C251.063,447.137,250.973,447.19,250.88,447.19z"/>
								<path style="fill:#263238;" d="M249.503,449.522c-0.036,0-0.072-0.008-0.107-0.025c-0.92-0.434-2.02-0.44-2.944-0.014
									c-0.124,0.058-0.273,0.003-0.331-0.123c-0.058-0.125-0.003-0.273,0.123-0.332c1.056-0.486,2.314-0.481,3.367,0.018
									c0.124,0.059,0.178,0.208,0.119,0.332C249.687,449.47,249.597,449.522,249.503,449.522z"/>
							</g>
						</g>
					</g>
					<path style="opacity:0.7;fill:#FFFFFF;" d="M266.598,444.489c-0.087,0.098-0.188,0.183-0.3,0.252
						c-3.199,2.038-4.712,3.002-8.694,5.538l-12.177,7.757c-1.796,1.144-3.44,0.814-4.39,0.087
						c0.508-0.318,24.825-15.545,25.075-15.856l0.475,0.448C267.034,443.214,267.052,443.976,266.598,444.489z"/>
				</g>
			</g>
			<g>
				<path style="fill:#B97964;" d="M185.262,431.473l14.432,8.9c-1.073,10.826-3.734,20.668-2.73,25.983l-4.657,3.34l-6.343-6.613
					C185.963,463.083,186.508,443.708,185.262,431.473z"/>
				<g>
					<g>
						<g>
							<g>
								<path style="fill:#407BFF;" d="M185.392,458.3l4.294-0.091c2.195,3.528,3.604,2.634,5.722,0.023
									c1.242-0.172,1.608,1.25,1.717,1.632l2.515,8.442c0.218,0.705-0.177,1.453-0.882,1.671c-0.125,0.039-0.256,0.059-0.387,0.06
									c-3.792,0.081-5.586,0.119-10.306,0.219l-14.434,0.307c-3.935,0.084-4.835-3.864-3.222-4.266
									c7.254-1.766,12.37-4.02,14.577-6.188C185.397,459.728,184.962,459.459,185.392,458.3z"/>
								<path style="fill:#263238;" d="M185.963,462.657c-0.081,0-0.161-0.039-0.208-0.112c-0.56-0.849-1.498-1.425-2.508-1.541
									c-0.137-0.016-0.236-0.14-0.22-0.276c0.016-0.138,0.15-0.234,0.277-0.22c1.156,0.133,2.228,0.791,2.868,1.762
									c0.076,0.115,0.044,0.271-0.071,0.347C186.059,462.644,186.011,462.657,185.963,462.657z"/>
								<path style="fill:#263238;" d="M184.054,464.159c-0.081,0-0.161-0.039-0.208-0.112c-0.56-0.849-1.497-1.425-2.508-1.541
									c-0.137-0.016-0.236-0.14-0.22-0.276c0.016-0.138,0.146-0.233,0.277-0.22c1.156,0.133,2.228,0.791,2.868,1.762
									c0.076,0.115,0.044,0.27-0.071,0.347C184.149,464.146,184.101,464.159,184.054,464.159z"/>
								<path style="fill:#263238;" d="M181.665,465.44c-0.081,0-0.161-0.039-0.208-0.112c-0.56-0.85-1.497-1.426-2.508-1.542
									c-0.137-0.016-0.236-0.14-0.22-0.276c0.016-0.138,0.15-0.232,0.277-0.22c1.156,0.133,2.229,0.792,2.869,1.763
									c0.076,0.115,0.045,0.271-0.071,0.347C181.761,465.426,181.713,465.44,181.665,465.44z"/>
							</g>
						</g>
					</g>
					<path style="opacity:0.7;fill:#FFFFFF;" d="M198.759,469.976c-0.125,0.039-0.256,0.059-0.387,0.059
						c-3.792,0.081-5.586,0.119-10.306,0.219l-14.434,0.307c-2.129,0.045-3.363-1.09-3.797-2.205
						c0.599-0.008,29.287-0.396,29.663-0.532l0.173,0.63C199.794,469.113,199.414,469.774,198.759,469.976z"/>
				</g>
			</g>
			<g>
				<path style="fill:#407BFF;" d="M191.465,304.626l10.209,21.784c0,0-16.21,48.8-17.185,53.886
					c-0.975,5.086-1.427,69.163-1.427,69.163l18.037,0.028l7.072-62.507c0,0,21.904-53.088,23.509-57.405
					c3.004-8.076-0.147-18.94-0.147-18.94l-5.578-8.041L191.465,304.626z"/>
				<path style="opacity:0.4;" d="M191.465,304.626l10.209,21.784c0,0-16.21,48.8-17.185,53.886
					c-0.975,5.086-1.427,69.163-1.427,69.163l18.037,0.028l7.072-62.507c0,0,21.904-53.088,23.509-57.405
					c3.004-8.076-0.147-18.94-0.147-18.94l-5.578-8.041L191.465,304.626z"/>
				<path style="fill:#407BFF;" d="M181.559,315.549c0,1.982,7.036,69.576,8.191,69.818c1.155,0.242,52.132,55.995,52.132,55.995
					l14.475-12.71l-37.403-50.714l-4.142-45.573l-1.451-28.647l-32.622,2.411L181.559,315.549z"/>
				<path style="opacity:0.4;" d="M181.559,315.549c0,1.982,7.036,69.576,8.191,69.818c1.155,0.242,52.132,55.995,52.132,55.995
					l14.475-12.71l-37.403-50.714l-4.142-45.573l-1.451-28.647l-32.622,2.411L181.559,315.549z"/>
				<polygon style="opacity:0.4;" points="206.3,402.997 207.199,387.122 217.679,363.9 217.679,363.9 209.811,388.451 
					209.06,405.261 				"/>
				<polygon style="opacity:0.4;" points="187.399,369.955 201.674,326.41 196.703,321.869 198.282,328.115 186.779,364.783 				"/>
			</g>
		</g>
		<g>
			<g>
				<g>
					<path style="fill:#B97964;" d="M138.062,245.318l22.087,20.273l10.296-19.163c0,0,11.232,11.091,10.849,11.255
						c-0.383,0.164-13.222,28.277-22.483,23.232c-9.26-5.045-24.918-30.409-24.918-30.409L138.062,245.318z"/>
					<path style="opacity:0.2;enable-background:new    ;" d="M160.149,265.591c0,0,1.914,3.064,1.676,5.953
						c0,0,0.857-1.416,0.598-3.717c-0.259-2.301-1.382-3.895-1.382-3.895L160.149,265.591z"/>
				</g>
				<path style="fill:#407BFF;" d="M180.481,229.186c6.029,3.094,8.45,14.085-4.508,40.582l-15.475-11.94
					c2.482-6.612,5-10.054,8.969-18.08C175.76,227.289,180.481,229.186,180.481,229.186z"/>
				<path style="fill:#407BFF;" d="M180.288,228.783c4.254-0.943,21.167-5.372,39.259-4.613l9.556,67.386
					c0,0,1.857,8.83,4.397,17.588c-17.228,9.976-41.14,11.585-53.971,6.143c0.171,0.268-0.233-7.195-0.784-18.132
					c-0.971-19.273-2.401-49.332-1.955-66.872C176.807,229.85,179.865,228.877,180.288,228.783z"/>
				<polygon style="opacity:0.2;enable-background:new    ;" points="177.373,266.835 176.766,245.04 174.014,268.257 
					175.973,269.768 				"/>
				<polygon style="opacity:0.2;enable-background:new    ;" points="223.557,262.199 222.611,262.477 216.442,245.95 
					221.07,264.862 224.215,264.879 				"/>
			</g>
			<path style="fill:#B97964;" d="M147.274,252.523c0,0-1.234-7.102-2.617-7.813s-2.708-0.576-2.708-0.576s-8.21-8.86-9.336-7.513
				c-0.61,0.729,1.052,3.235,4.992,7.37c0,0-3.038,0.187-2.416,2.122c0,0-2.291,0.321-1.816,2.644c0,0-1.454,1.491-0.63,2.969
				c0.824,1.477,5.368,6.236,8.401,7.651c3.033,1.415,6.729-4.195,6.729-4.195L147.274,252.523z"/>
			<path style="opacity:0.3;" d="M143.175,253.684c-0.023,0-0.047-0.003-0.071-0.011c-0.972-0.288-1.78-1.162-2.107-2.282
				c-0.254-0.867-0.248-2.225-0.102-3.218c-1.301,0.474-3.257,0.354-4.117-0.552c-0.575-0.605-0.617-1.183-0.133-1.817
				c0.236-0.309,0.799-0.459,1.456-0.609c0.127-0.029,0.24-0.055,0.326-0.08c0.548-0.155,1.248-0.382,1.948-0.609
				c0.71-0.23,1.42-0.461,1.976-0.618c0.133-0.035,0.271,0.04,0.309,0.173c0.038,0.133-0.04,0.271-0.173,0.309
				c-0.551,0.156-1.255,0.384-1.958,0.612c-0.706,0.229-1.412,0.458-1.965,0.615c-0.092,0.026-0.214,0.054-0.351,0.085
				c-0.358,0.082-1.025,0.235-1.17,0.425c-0.333,0.437-0.308,0.743,0.098,1.17c0.788,0.829,2.901,0.846,3.965,0.255
				c0.087-0.049,0.192-0.041,0.272,0.019c0.079,0.059,0.115,0.159,0.093,0.255c-0.213,0.928-0.261,2.534,0.005,3.444
				c0.28,0.959,0.959,1.703,1.769,1.944c0.133,0.039,0.208,0.178,0.169,0.311C143.382,253.613,143.283,253.684,143.175,253.684z"/>
			<path style="opacity:0.3;" d="M135.637,253.947c-0.269,0-0.553-0.079-0.816-0.233c-0.36-0.212-0.641-0.528-0.888-0.808
				c-0.092-0.104-0.082-0.262,0.021-0.354c0.103-0.091,0.26-0.083,0.353,0.021c0.234,0.264,0.475,0.537,0.767,0.708
				c0.293,0.172,0.61,0.215,0.852,0.108c0.419-0.182,0.555-0.78,0.473-1.277c-0.087-0.529-0.346-1.02-0.723-1.397
				c-0.194-0.123-0.384-0.268-0.568-0.434c-0.095-0.085-0.11-0.229-0.035-0.332c0.075-0.104,0.216-0.133,0.327-0.07
				c0.213,0.123,0.41,0.271,0.586,0.441c0.331,0.203,0.668,0.329,0.997,0.37c0.583,0.069,1.164-0.143,1.471-0.548
				c0.32-0.423,0.289-1.075-0.067-1.396c-0.102-0.092-0.111-0.251-0.018-0.353c0.092-0.102,0.251-0.111,0.353-0.018
				c0.546,0.493,0.606,1.44,0.13,2.069c-0.413,0.545-1.169,0.836-1.931,0.742c-0.111-0.014-0.223-0.035-0.335-0.064
				c0.148,0.284,0.253,0.591,0.305,0.909c0.11,0.667-0.083,1.521-0.767,1.818C135.975,253.915,135.809,253.947,135.637,253.947z"/>
		</g>
		<g>
			<g>
				<path style="fill:#407BFF;" d="M219.131,224.154c0,0,7.523,0.207,10.547,8.598c2.784,7.727,9.868,24.765,9.868,24.765
					l-16.935,4.959l-6.743-20.175L219.131,224.154z"/>
			</g>
			<g>
				<path style="fill:#B97964;" d="M238.273,257.89c0,0,5.095,12.069,7.258,22.899c0.983,4.922-2.951,8.077-6.974,9.049
					c-12.676,3.063-41.24,3.074-41.24,3.074l-0.748-8.712l32.9-7.118l-5.912-14.881L238.273,257.89z"/>
				<path style="fill:#263238;" d="M197.245,294.766l-10.785,1.216c-0.368,0.042-0.736-0.086-1-0.346l-16.413-16.226
					c-0.677-0.67-0.366-1.822,0.556-2.06l9.483-2.446c0.417-0.108,0.86,0.012,1.167,0.314l17.714,17.456
					C198.703,293.398,198.27,294.651,197.245,294.766z"/>
				<path style="fill:#B97964;" d="M198.253,284.245c0,0-0.305-1.269-5.075-2.724c-3.625-1.106-7.224-4.498-7.809-4.381
					c-0.585,0.117-1.225,1.963,0.283,3.595c1.509,1.632,3.068,2.552,2.671,3.176c-0.96,1.503-12.755,0.279-12.958,1.566
					c-0.203,1.287,2.045,4.972,8.361,7.435c6.315,2.463,14.974-0.008,14.974-0.008L198.253,284.245z"/>
			</g>
		</g>
		<g>
			<g>
				<g>
					<g>
						<g>
							<path style="fill:#B97964;" d="M204.767,224.69c0,0-1.618-5.333,0.086-15.287c-0.002-0.01-0.534-0.178-0.536-0.188
								c0.233-1.391,0.502-2.683,0.766-3.807c0.005-0.032,0.004-0.043,0.004-0.043l-12.262,9.639
								c0.658,3.047,0.225,9.128-0.15,11.717c0,0-1.15,4.743,4.932,4.257C202.051,230.623,204.767,224.69,204.767,224.69z"/>
							<path style="opacity:0.2;" d="M193.089,219.363l7.394-2.568c-0.422,2.438-2.194,5.471-7.448,6.296
								C193.035,223.09,193.263,220.39,193.089,219.363z"/>
						</g>
						<g>
							<path style="fill:#B97964;" d="M204.465,198.949c0.056,8.459,0.258,13.228-3.713,17.803
								c-5.973,6.881-16.401,3.811-18.99-4.485c-2.33-7.467-2.031-20.045,6.008-23.881
								C195.691,184.606,204.409,190.49,204.465,198.949z"/>
							<path style="fill:#263238;" d="M204.844,188.748c-1.472-4.563-13.11-3.822-16.198-1.228c-0.462,0.387,6.41,2.64,5.982,2.516
								l3.432,0.204c0.492-0.145,1.657,1.809,2.271,3.327c0,0,0.51,12.94,4.424,16.429c2.843-1.635,2.667-6.765,3.386-9.876
								C209.214,195.484,210.426,188.719,204.844,188.748z"/>
							<path style="fill:#B97964;" d="M208.27,205.744c-0.526,2.215-2.03,3.971-3.645,4.914c-2.429,1.42-3.553-1.265-3.496-3.935
								c0.052-2.403,0.551-5.361,3.286-5.691C207.109,200.707,208.871,203.212,208.27,205.744z"/>
							<path style="fill:#263238;" d="M192.574,202.202c0.059,0.862-0.351,1.587-0.916,1.62c-0.565,0.033-1.07-0.639-1.129-1.501
								c-0.059-0.862,0.351-1.587,0.916-1.62C192.01,200.668,192.515,201.34,192.574,202.202z"/>
							<path style="fill:#263238;" d="M184.131,202.946c0.059,0.862-0.351,1.587-0.916,1.62c-0.565,0.033-1.07-0.639-1.129-1.501
								c-0.059-0.862,0.351-1.588,0.916-1.62C183.567,201.411,184.072,202.084,184.131,202.946z"/>
							<path style="fill:#A24E3F;" d="M186.849,202.28c0,0-2.437,4.469-3.193,6.273c1.274,1.002,3.306,0.362,3.306,0.362
								L186.849,202.28z"/>
							<path style="fill:#263238;" d="M194.404,197.995c-0.127,0.062-0.283,0.056-0.409-0.029c-1.5-1.014-2.884-0.462-2.898-0.456
								c-0.206,0.085-0.445-0.012-0.532-0.217c-0.087-0.205,0.011-0.441,0.216-0.526c0.073-0.03,1.806-0.723,3.668,0.536
								c0.186,0.125,0.235,0.376,0.11,0.56C194.518,197.921,194.465,197.966,194.404,197.995z"/>
							<path style="fill:#263238;" d="M189.974,211.844c-0.197,0-0.362-0.153-0.374-0.353c-0.012-0.206,0.145-0.384,0.352-0.397
								c1.123-0.068,2.078-0.621,3.192-1.849c0.14-0.154,0.376-0.165,0.53-0.026c0.153,0.139,0.165,0.377,0.026,0.53
								c-0.888,0.979-2.022,1.992-3.703,2.094C189.99,211.844,189.982,211.844,189.974,211.844z"/>
						</g>
						<path style="opacity:0.2;" d="M202.513,206.581c-0.003,0-0.007,0-0.011-0.001c-0.138-0.006-0.245-0.123-0.238-0.261
							c0.035-0.775,0.273-1.532,0.69-2.188c0.283-0.444,0.773-1.023,1.501-1.256c0.719-0.23,1.514-0.018,1.931,0.517
							c0.085,0.109,0.065,0.266-0.044,0.351c-0.11,0.084-0.267,0.065-0.351-0.043c-0.286-0.367-0.868-0.514-1.384-0.348
							c-0.586,0.187-0.993,0.673-1.231,1.048c-0.37,0.582-0.581,1.253-0.613,1.942C202.756,206.477,202.646,206.581,202.513,206.581
							z"/>
					</g>
					<path style="fill:#263238;" d="M180.153,199.561c-0.076-0.011-0.15-0.044-0.212-0.099c-0.167-0.149-0.183-0.406-0.036-0.572
						c1.479-1.67,3.317-1.39,3.401-1.388c0.22,0.035,0.373,0.242,0.341,0.463c-0.032,0.22-0.235,0.371-0.454,0.339
						c-0.076-0.015-1.495-0.212-2.682,1.128C180.418,199.536,180.282,199.58,180.153,199.561z"/>
				</g>
			</g>
			<g>
				<path style="fill:#263238;" d="M198.159,181.687c-1.947-0.631-3.883-0.834-5.858-0.714c-3.531,0.213-7.221,0.63-10.2,2.978
					c-1.305,1.029-2.417,2.388-3.673,3.508c-1.255,1.12-2.737,2.02-4.284,1.915c1.177,2.274,3.669,3.363,5.745,2.511
					c-1.533,0.639-3.164,0.921-4.78,0.827c3.41,1.526,7.116,2.541,10.66,1.585c2.367-0.639,4.522-2.118,6.799-3.142
					c2.277-1.024,4.875-1.568,7.08-0.327l5.196-2.08C205.77,184.842,202.484,183.089,198.159,181.687z"/>
			</g>
		</g>
	</g>
</g>
</svg>
